<svg width="22" height="22" viewBox="0 0 22 22" fill="none" xmlns="http://www.w3.org/2000/svg">
<path fill-rule="evenodd" clip-rule="evenodd" d="M21.1644 21.3876C20.9092 21.6428 20.4955 21.6428 20.2403 21.3876L0.83284 1.98001C0.577639 1.7248 0.577639 1.31104 0.83284 1.05584C1.08804 0.800633 1.5018 0.800632 1.757 1.05583L21.1644 20.4634C21.4196 20.7186 21.4196 21.1324 21.1644 21.3876Z" fill="black"/>
<path fill-rule="evenodd" clip-rule="evenodd" d="M0.833602 21.3876C1.0888 21.6428 1.50256 21.6428 1.75777 21.3876L21.1652 1.98001C21.4204 1.7248 21.4204 1.31104 21.1652 1.05584C20.91 0.800633 20.4962 0.800632 20.241 1.05583L0.833601 20.4634C0.5784 20.7186 0.578401 21.1324 0.833602 21.3876Z" fill="black"/>
</svg>
