<svg width="34" height="18" viewBox="0 0 34 18" fill="none" xmlns="http://www.w3.org/2000/svg">
<path d="M34 0.516602H0V17.5166H34V0.516602Z" fill="#000066"/>
<path d="M0 0.516602V2.41726L30.1988 17.5167H34V15.6161L3.8012 0.516658H0L0 0.516602ZM34 0.516602V2.4172L3.8012 17.5166H0V15.616L30.1988 0.516602H34Z" fill="white"/>
<path d="M14.1667 0.516602V17.5166H19.8333V0.516602H14.1667ZM0 6.18327V11.8499H34V6.18327H0Z" fill="white"/>
<path d="M0 7.3166V10.7166H34V7.3166H0ZM15.3 0.516602V17.5166H18.7V0.516602H15.3Z" fill="#CC0000"/>
<path d="M0 17.5166L11.3333 11.8499H13.8675L2.53413 17.5166H0H0ZM0 0.516602L11.3333 6.18327H8.7992L0 1.78372V0.516602L0 0.516602ZM20.1325 6.18327L31.4659 0.516602H34L22.6667 6.18327H20.1325ZM34 17.5166L22.6667 11.8499H25.2008L34 16.2495V17.5166Z" fill="#CC0000"/>
</svg>
